<svg xmlns="http://www.w3.org/2000/svg" aria-hidden="true" style="position:absolute;width:0;height:0;overflow:hidden">
    <defs>
        <symbol id="facebook" viewBox="0 0 32 32">
            <path
                d="M24 2.667h-4a6.667 6.667 0 0 0-6.667 6.667v4h-4v5.333h4v10.667h5.333V18.667h4l1.333-5.333h-5.333v-4c0-.736.597-1.333 1.333-1.333h4V2.668z" />
        </symbol>
        <symbol id="hero_check" viewBox="0 0 32 32">
            <path stroke-linecap="round" stroke-linejoin="round" stroke-width="2.56"
                d="M26.24 8.32 12.16 22.4 5.76 16" />
        </symbol>
        <symbol id="hero_calendar" viewBox="0 0 32 32">
            <path stroke-linecap="round" stroke-linejoin="round" stroke-width="2.667"
                d="M25.333 5.333H6.666A2.667 2.667 0 0 0 3.999 8v18.667a2.667 2.667 0 0 0 2.667 2.667h18.667A2.667 2.667 0 0 0 28 26.667V8a2.667 2.667 0 0 0-2.667-2.667z" />
            <path stroke-linecap="round" stroke-linejoin="round" stroke-width="2.667"
                d="M20 18.667 15.833 24l-2.5-2.509m8-18.824V8M10.667 2.667V8M4 13.333h24" />
        </symbol>
        <symbol id="hero_clock" viewBox="0 0 32 32">
            <path stroke-linecap="round" stroke-linejoin="round" stroke-width="2.667"
                d="M16 29.333c7.364 0 13.333-5.969 13.333-13.333S23.364 2.667 16 2.667 2.667 8.636 2.667 16 8.636 29.333 16 29.333z" />
            <path stroke-linecap="round" stroke-linejoin="round" stroke-width="2.667" d="M16 8v8l5.333 2.667" />
        </symbol>
        <symbol id="hero_guarantee" viewBox="0 0 32 32">
            <path stroke-width="2.667"
                d="M14.1 3.928c.484-.491 1.156-.796 1.9-.796s1.416.304 1.9.795l1.391 1.413a2.658 2.658 0 0 0 1.899.795h.022-.001l1.983-.015h.019a2.667 2.667 0 0 1 2.667 2.667v.02-.001l-.013 1.983v.021c0 .743.304 1.415.794 1.899l1.412 1.391c.491.484.796 1.156.796 1.9s-.304 1.416-.795 1.9l-1.414 1.391a2.658 2.658 0 0 0-.795 1.899v.022-.001l.015 1.983v.019a2.667 2.667 0 0 1-2.667 2.667h-.02.001l-1.983-.013h-.021c-.743 0-1.415.304-1.899.794L17.9 28.073c-.484.491-1.156.796-1.9.796s-1.416-.304-1.9-.795l-1.391-1.413a2.658 2.658 0 0 0-1.899-.795h-.022.001l-1.983.015h-.019a2.667 2.667 0 0 1-2.667-2.667v-.02.001l.013-1.983v-.021c0-.743-.304-1.415-.794-1.899l-1.412-1.391c-.491-.484-.796-1.156-.796-1.9s.304-1.416.795-1.9L5.34 12.71a2.658 2.658 0 0 0 .795-1.899v-.022.001l-.016-1.983v-.019a2.667 2.667 0 0 1 2.667-2.667h.02-.001l1.983.013h.021c.743 0 1.415-.304 1.899-.794l1.391-1.412z" />
            <path stroke-linecap="round" stroke-linejoin="round" stroke-width="2.667"
                d="M21.333 13.333 15.5 18.666 12 16.157" />
        </symbol>
        <symbol id="hero_map_pin" viewBox="0 0 32 32">
            <path stroke-linecap="round" stroke-linejoin="round" stroke-width="2.667"
                d="M28 13.333c0 6.831-6.427 12.947-9.873 15.736-.574.474-1.317.762-2.127.762s-1.553-.288-2.132-.766l.006.005c-3.447-2.791-9.873-8.907-9.873-15.736 0-6.627 5.373-12 12-12s12 5.373 12 12z" />
            <path stroke-linecap="round" stroke-linejoin="round" stroke-width="2.667"
                d="M16 17.333a4 4 0 0 0 0-8 4 4 0 0 0 0 8z" />
        </symbol>
        <symbol id="star" viewBox="0 0 32 32">
            <path
                d="M14.261 5.352c.547-1.684 2.931-1.684 3.477 0l1.443 4.44a1.833 1.833 0 0 0 1.739 1.263H25.589c1.772 0 2.508 2.267 1.075 3.308l-3.777 2.744a1.828 1.828 0 0 0-.661 2.057l-.004-.013 1.443 4.44c.548 1.684-1.381 3.084-2.814 2.044l-3.777-2.744c-.297-.218-.671-.349-1.075-.349s-.777.131-1.08.353l.005-.004-3.778 2.744c-1.432 1.04-3.36-.36-2.813-2.044l1.444-4.44a1.829 1.829 0 0 0-.658-2.041l-.005-.004-3.777-2.744c-1.433-1.041-.697-3.308 1.076-3.308h4.668a1.83 1.83 0 0 0 1.74-1.263l1.443-4.44z" />
        </symbol>
        <symbol id="clock_filled" viewBox="0 0 32 32">
            <path
                d="M14.593 18.043a.365.365 0 0 0 .091-.101l.001-.002a.533.533 0 0 0 .068-.278c0-.151-.042-.266-.126-.346a.397.397 0 0 0-.182-.1l-.003-.001a.677.677 0 0 0-.161-.019h-1.265l.724-.716c.105-.102.204-.209.298-.32l.005-.007c.058-.07.11-.14.155-.207.105-.144.19-.311.248-.49l.003-.012c.054-.167.082-.339.082-.515 0-.28-.061-.515-.182-.703a1.143 1.143 0 0 0-.534-.44 1.611 1.611 0 0 0-.342-.105l-.01-.002a2.628 2.628 0 0 0-.486-.044h-.023.001c-.243 0-.48.03-.705.087l.02-.004-.015.004-.016.004a2.382 2.382 0 0 0-.515.207l.012-.006-.004.003-.042.024a.46.46 0 0 0-.184.202.464.464 0 0 0-.044.27.526.526 0 0 0 .113.245.43.43 0 0 0 .226.138.49.49 0 0 0 .308-.044l.058-.029.003-.001a1.588 1.588 0 0 1 .359-.121l.004-.001a1.175 1.175 0 0 1 .431-.018l-.006-.001a.684.684 0 0 1 .225.068.465.465 0 0 1 .064.041c.104.079.157.199.157.358a.761.761 0 0 1-.107.377 1.097 1.097 0 0 1-.064.106l.003-.005c-.06.089-.12.166-.185.239l.002-.003-.003.004a4.463 4.463 0 0 1-.099.11l-1.099 1.149a1.58 1.58 0 0 0-.129.153l-.003.004-.005.007-.004.007a1.5 1.5 0 0 0-.062.093l-.003.006a.643.643 0 0 0-.075.302v.013-.001c0 .167.04.295.119.383a.438.438 0 0 0 .244.113c.048.008.1.012.158.012h2.185c.134 0 .24-.03.317-.09zM16.941 17.392h-1.262c-.184 0-.329-.042-.433-.126-.1-.084-.151-.211-.151-.383v-.003c0-.103.021-.202.057-.286a.924.924 0 0 1 .033-.076l.005-.01a1.76 1.76 0 0 1 .163-.259l1.532-2.235c.084-.126.178-.218.283-.276s.228-.088.37-.088a.5.5 0 0 1 .377.144c.092.092.138.234.138.427v2.298h.151c.116 0 .212.02.286.061l.002.001c.02.011.038.024.055.038h.001a.32.32 0 0 1 .066.071.441.441 0 0 1 .074.262.53.53 0 0 1-.027.176l-.001.002a.353.353 0 0 1-.098.148l-.015.013c-.079.067-.194.1-.343.1h-.15v.226c0 .08-.009.153-.028.217a.497.497 0 0 1-.117.21l-.002.002c-.092.095-.227.143-.406.143-.176 0-.314-.048-.414-.145-.096-.096-.144-.238-.144-.427v-.226zm0-.873v-1.221l-.822 1.221h.822zM18.914 15.746a.315.315 0 0 1 .024-.077.26.26 0 0 1 .127-.13l.002-.001a.4.4 0 0 1 .158-.032h.004l.043.002h-.002a.304.304 0 0 1 .231.116v.001a.34.34 0 0 1 .058.18l.001.032v.706a.618.618 0 0 1 .319-.225l.004-.001a.82.82 0 0 1 .239-.035h.004c.145 0 .264.028.357.084a.481.481 0 0 1 .087.065l.005.005h.001a.524.524 0 0 1 .117.187c.047.115.07.261.07.437v.772c0 .108-.028.19-.084.246a.28.28 0 0 1-.134.073h-.002a.443.443 0 0 1-.107.012c-.106 0-.186-.028-.243-.084s-.085-.139-.085-.246v-.748a.796.796 0 0 0-.003-.069v.003l-.001-.01-.001-.006-.001-.008-.001-.004a.352.352 0 0 0-.011-.053l.001.003a.268.268 0 0 0-.026-.065l.001.001-.003-.004a.19.19 0 0 0-.015-.021.165.165 0 0 0-.058-.047h-.001a.213.213 0 0 0-.069-.02h-.001a.486.486 0 0 0-.124.007h.003a.29.29 0 0 0-.151.087.281.281 0 0 0-.05.072l-.001.002a.368.368 0 0 0-.035.135v.001a.536.536 0 0 0-.002.04v.706c0 .221-.11.331-.331.331h-.003a.44.44 0 0 1-.132-.02l.003.001a.27.27 0 0 1-.107-.065c-.056-.056-.084-.139-.084-.246V15.84c0-.033.003-.064.008-.092z" />
            <path
                d="M2.667 15.84C2.667 8.476 8.636 2.506 16 2.506s13.333 5.969 13.333 13.333S23.364 29.172 16 29.172 2.667 23.203 2.667 15.839zm8.304 2.885c.357.357.812.423 1.119.423h2.185c.32 0 .737-.084 1.069-.416.094-.094.175-.201.243-.326h-.005l.096.002h.428l.004.008c.071.135.163.257.272.363.336.322.751.427 1.116.427.286 0 .627-.064.927-.274.265.192.561.251.803.251h-.001.011c.216 0 .421-.047.596-.129l-.009-.004c.182.085.385.132.6.132h.008c.285 0 .658-.08.96-.382.306-.306.382-.684.382-.964v-.772c0-.255-.032-.54-.143-.814a1.508 1.508 0 0 0-.635-.754l.007.004a1.603 1.603 0 0 0-.535-.2 1.249 1.249 0 0 0-.291-.432c-.3-.296-.67-.374-.952-.374a1.54 1.54 0 0 0-.163.009v-.28c0-.331-.077-.78-.427-1.136a1.508 1.508 0 0 0-1.102-.45c-.284 0-.584.059-.866.217-.274.153-.477.37-.627.593l-.576.841a2.07 2.07 0 0 0-.262-.603 2.155 2.155 0 0 0-.987-.826c-.395-.172-.829-.234-1.263-.234a3.8 3.8 0 0 0-.846.093l-.004.001c-.3.068-.587.177-.858.324-.257.139-.51.36-.663.69-.12.255-.17.541-.13.836l.001.009c.043.281.162.537.334.744l.002.002c.194.232.46.402.773.478l.01.003-.009-.002a.618.618 0 0 0 .056.011l-.507.53c-.13.136-.247.287-.346.453l.004-.008c-.14.244-.221.526-.221.827v.011c0 .316.075.724.381 1.064l.001.001.034.036zm2.843-10.217c.265-.083.531-.15.797-.204a7.913 7.913 0 0 1 5.22 14.76.98.98 0 0 0-.09.041l.005-.003c-.315.159-.645.3-.988.419l.244-.647a.962.962 0 0 0-1.798-.684l-.002.007-.956 2.541a.959.959 0 0 0 .35 1.128l.003.002 2.145 1.484a.962.962 0 0 0 1.098-1.58l-.003-.002-.552-.382a9.853 9.853 0 0 0 4.547-3.205l.016-.02a.991.991 0 0 0 .132-.142c.64-.833 1.16-1.8 1.511-2.845l.02-.07a.906.906 0 0 0 .046-.243 9.872 9.872 0 0 0 .344-3.874l.004.044a.984.984 0 0 0 .004-.287 9.85 9.85 0 0 0-.378-1.683l.019.07a9.827 9.827 0 0 0-.647-1.587l.026.055a.996.996 0 0 0-.165-.233 9.9 9.9 0 0 0-2.429-2.924l-.018-.014a.996.996 0 0 0-.188-.19l-.002-.002a9.787 9.787 0 0 0-2.846-1.511l-.07-.02a.97.97 0 0 0-.207-.044h-.004a9.58 9.58 0 0 0-2.87-.431c-.406 0-.806.025-1.198.073l.047-.005a.915.915 0 0 0-.127.009c-.496.068-.93.159-1.352.278l.07-.017a9.813 9.813 0 0 0-5.992 4.625.962.962 0 0 0-.1.249 9.473 9.473 0 0 0-.644 1.492l-.02.07a.964.964 0 0 0 1.831.606l.002-.007a7.958 7.958 0 0 1 1.246-2.365l-.014.019a.974.974 0 0 0 .116-.195 7.935 7.935 0 0 1 2.398-1.975l.042-.021a.906.906 0 0 0 .145-.06c.345-.18.753-.349 1.177-.484l.056-.015zM7.243 16.28l-.005.001a.964.964 0 0 0-.821 1.085l.006.052c.078.56.204 1.105.352 1.561l.019.07c.168.526.378 1.033.601 1.461l.003.005a.963.963 0 0 0 1.718-.877 8.03 8.03 0 0 1-.789-2.532l-.001-.005a.964.964 0 0 0-1.085-.821zm4.124 6.058a.964.964 0 0 0-1.17 1.532l.002.002c.833.64 1.8 1.16 2.845 1.511l.07.02a.964.964 0 0 0 .606-1.831l-.007-.002a7.958 7.958 0 0 1-2.365-1.246l.019.014z" />
            <path
                d="M12.09 18.133c-.184 0-.318-.042-.402-.125-.08-.088-.119-.216-.119-.383 0-.117.025-.222.075-.314a1.52 1.52 0 0 1 .207-.27l1.099-1.149c.163-.176.278-.326.345-.452a.758.758 0 0 0 .107-.377c0-.159-.052-.278-.157-.358s-.256-.119-.452-.119c-.1 0-.207.015-.32.044a1.553 1.553 0 0 0-.372.142l.008-.004c-.113.05-.216.065-.308.044s-.168-.071-.226-.137v-.001a.52.52 0 0 1-.112-.242v-.003a.473.473 0 0 1 .044-.27.493.493 0 0 1 .226-.226c.172-.096.371-.174.581-.223l.016-.003a2.81 2.81 0 0 1 .628-.069c.343 0 .63.05.86.15.235.1.412.247.534.44.122.188.182.422.182.703 0 .176-.027.348-.082.515a1.755 1.755 0 0 1-.255.508l.004-.005a3.551 3.551 0 0 1-.458.533l-1.017 1.005v-.289h1.551c.155 0 .272.04.351.119.084.08.126.195.126.346s-.042.268-.126.351c-.079.08-.196.119-.351.119h-2.185zm5.41.056c-.176 0-.314-.048-.414-.145-.096-.096-.144-.238-.144-.427v-.226H15.68c-.184 0-.329-.042-.433-.126-.1-.084-.15-.211-.15-.383 0-.1.019-.197.056-.289.037-.096.105-.211.201-.345l1.532-2.235c.084-.126.178-.218.283-.276s.228-.088.37-.088c.159 0 .285.048.377.144.092.092.138.234.138.427v2.298h.15c.159 0 .278.038.358.113.084.075.125.182.125.32 0 .142-.042.251-.125.326-.08.076-.199.113-.358.113h-.151v.226c0 .184-.048.326-.144.427-.092.096-.228.145-.408.145zm-.559-1.67v-1.482h.176l-1.181 1.752v-.27h1.005zm2.289 1.647c-.103 0-.182-.028-.239-.084s-.084-.139-.084-.246V15.84c0-.108.028-.19.084-.246s.136-.084.239-.084c.106 0 .186.028.243.085.059.056.088.138.088.246v.801h-.059a.622.622 0 0 1 .25-.265.748.748 0 0 1 .362-.092h.014-.001a.68.68 0 0 1 .356.084.5.5 0 0 1 .21.257c.047.115.07.261.07.437v.772c0 .108-.028.19-.084.246s-.137.084-.243.084c-.106 0-.186-.028-.243-.084s-.085-.139-.085-.246v-.746c0-.11-.02-.189-.059-.236-.037-.046-.092-.07-.166-.07a.304.304 0 0 0-.235.096.345.345 0 0 0-.088.25v.706c0 .221-.11.331-.331.331z" />
        </symbol>
        <symbol id="arrow_left" viewBox="0 0 32 32">
            <path stroke-linecap="round" stroke-linejoin="round" stroke-width="2.56"
                d="M24.96 16H7.04M16 24.96 7.04 16 16 7.04" />
        </symbol>
        <symbol id="arrow_right" viewBox="0 0 32 32">
            <path stroke-linecap="round" stroke-linejoin="round" stroke-width="2.56"
                d="M7.04 16h17.92M16 7.04 24.96 16 16 24.96" />
        </symbol>
        <symbol id="bathroom_filled" viewBox="0 0 32 32">
            <path
                d="M30 17H2a1 1 0 0 0-1 1v5a6.007 6.007 0 0 0 6 6h1v2a1 1 0 0 0 2 0v-2h12v2a1 1 0 0 0 2 0v-2h1a6.007 6.007 0 0 0 6-6v-5a1 1 0 0 0-1-1zM16 6.1V5a3 3 0 1 1 6 0v10h2V5a5 5 0 0 0-10 0v1.1c-2.297.485-3.997 2.493-4 4.9a1 1 0 0 0 1 1h8a1 1 0 0 0 1-1 5.01 5.01 0 0 0-3.967-4.894L16 6.1z" />
        </symbol>
        <symbol id="calendar_filled" viewBox="0 0 32 32">
            <path
                d="M22.019 4.349c-.001-.594-.449-1.04-1.015-1.039-.579.001-1.014.447-1.012 1.042l.001.946-7.82.011-.001-.946c-.001-.595-.436-1.04-1.015-1.039-.579 0-1.013.447-1.012 1.042l.001 1.013c-3.673.342-6.013 2.872-6.008 6.789l.014 9.99c.005 4.255 2.667 6.927 6.855 6.922l9.29-.012c-1.815-1.139-3.018-3.126-3.018-5.388 0-1.356.433-2.614 1.171-3.65a.578.578 0 0 1-.243-.471v-1.876c0-.32.259-.579.579-.579h1.876c.32 0 .579.259.579.579v.119a6.564 6.564 0 0 1 2.588-.522h.011-.001c1.642 0 3.143.588 4.293 1.561l-.01-6.758c-.004-3.891-2.43-6.428-6.103-6.72l-.001-1.013zm-9.843 3.04 7.82-.011.001 1.094c0 .581.436 1.04 1.015 1.039.566 0 1.012-.461 1.012-1.042l-.001-1.04c2.58.227 4.018 1.751 4.075 4.656v.473l-19.931.027-.002-.42c-.004-2.931 1.417-4.46 3.984-4.721l.001 1.04c0 .582.436 1.04 1.015 1.039.579 0 1.012-.46 1.012-1.042l-.002-1.093zM7.173 17.683c0-.32.259-.579.579-.579h1.876c.32 0 .579.259.579.579v1.876c0 .32-.259.579-.579.579H7.752a.579.579 0 0 1-.579-.579v-1.876zm.579 4.386a.579.579 0 0 0-.579.579v1.876c0 .32.259.579.579.579h1.876c.32 0 .579-.259.579-.579v-1.876a.579.579 0 0 0-.579-.579H7.752zm4.938-4.386c0-.32.259-.579.579-.579h1.876c.32 0 .579.259.579.579v1.876c0 .32-.259.579-.579.579h-1.876a.579.579 0 0 1-.579-.579v-1.876zm.579 4.386a.579.579 0 0 0-.579.579v1.876c0 .32.259.579.579.579h1.876c.32 0 .579-.259.579-.579v-1.876a.579.579 0 0 0-.579-.579h-1.876z" />
            <path
                d="M23.862 18.483c2.971 0 5.379 2.347 5.379 5.242s-2.408 5.241-5.379 5.241c-2.971 0-5.379-2.347-5.379-5.241s2.408-5.242 5.379-5.242zm.718 3.034a.579.579 0 1 0-1.158 0v2.695c0 .229.134.436.343.529l1.379.615a.579.579 0 0 0 .475-1.056l-.004-.001-1.036-.462v-2.32z" />
        </symbol>
        <symbol id="chevron_down" viewBox="0 0 32 32">
            <path stroke-linecap="round" stroke-linejoin="round" stroke-width="2" d="m24 20-8-8-8 8" />
        </symbol>
        <symbol id="chevron_right" viewBox="0 0 32 32">
            <path stroke-linecap="round" stroke-linejoin="round" stroke-width="2.667" d="m12 24 8-8-8-8" />
        </symbol>
        <symbol id="commitment_filled" viewBox="0 0 32 32">
            <path
                d="M26.758 14.157c0 6.142-5.743 11.122-12.828 11.122h-.02c-.354 0-.706-.013-1.054-.037l.047.003c1.904 1.712 4.565 2.776 7.509 2.776h.018c1.088 0 2.141-.146 3.142-.421l-.083.019c.764.388 2.521 1.133 5.477 1.619.261.042.461-.231.358-.475-.464-1.097-.883-2.558-1.01-3.891 1.608-1.613 2.581-3.725 2.581-6.034 0-3.154-1.816-5.937-4.581-7.59a9.55 9.55 0 0 1 .443 2.906v.002z" />
            <path
                d="M25.28 14.231c0 5.386-5.086 9.751-11.36 9.751h-.02c-1.178 0-2.32-.156-3.406-.447l.092.021c-.828.412-2.732 1.204-5.935 1.719a.364.364 0 0 1-.388-.504c.502-1.165.957-2.717 1.094-4.132-1.742-1.714-2.797-3.956-2.797-6.408 0-5.386 5.086-9.751 11.36-9.751s11.36 4.366 11.36 9.751zm-15.901-2.82a.727.727 0 0 0 0 1.454h5.242a.727.727 0 0 0 0-1.454H9.379zm0 4.965a.728.728 0 0 0-.001 1.454H18.773a.727.727 0 0 0 0-1.454H9.379z" />
        </symbol>
        <symbol id="door_filled" viewBox="0 0 32 32">
            <path
                d="M29.036 7.982H15.58a3.245 3.245 0 1 0 .001 4.637l-.001.001h13.456a.464.464 0 0 0 .464-.464V8.447a.464.464 0 0 0-.464-.464z" />
            <path
                d="M17.328.584H8.182a2.286 2.286 0 0 0-2.286 2.285L5.459 29.13a2.286 2.286 0 0 0 2.286 2.286h9.146a2.286 2.286 0 0 0 2.286-2.286l.437-14.828h-3.056a5.144 5.144 0 1 1 .008-7.995l-.009-.007h3.056V2.871A2.287 2.287 0 0 0 17.327.585zm-5.01 18.83h.011a2.276 2.276 0 0 1 1.143 4.245l-.011.006v2.609a.571.571 0 0 1-.571.571h-1.144a.571.571 0 0 1-.571-.571v-2.609a2.276 2.276 0 0 1 1.132-4.25h.012-.001z" />
        </symbol>
        <symbol id="guarantee_filled" viewBox="0 0 32 32">
            <path
                d="M14.217 3.332c.466-.479 1.117-.777 1.837-.777s1.371.297 1.836.776l.001.001.574.591a2.554 2.554 0 0 0 1.837.777h.02-.001l.828-.006h.019a2.56 2.56 0 0 1 2.56 2.56v.02-.001l-.006.917v.019c0 .707.287 1.347.75 1.81l.651.651c.463.463.75 1.103.75 1.811s-.287 1.347-.75 1.811l-.651.651a2.553 2.553 0 0 0-.75 1.811v.02-.001l.007.917v.019a2.56 2.56 0 0 1-2.56 2.56h-.02.001l-.828-.006h-.019a2.55 2.55 0 0 0-1.836.776l-.001.001-.574.591c-.466.479-1.117.777-1.837.777s-1.371-.297-1.836-.776l-.001-.001-.573-.591a2.552 2.552 0 0 0-1.837-.777h-.02.001l-.828.006h-.019a2.56 2.56 0 0 1-2.56-2.56v-.02.001l.007-.917v-.019c0-.707-.287-1.347-.75-1.811l-.651-.651c-.463-.463-.75-1.103-.75-1.81s.287-1.347.75-1.81l.651-.651c.463-.463.75-1.103.75-1.811v-.02.001l-.007-.917v-.019a2.56 2.56 0 0 1 2.56-2.56h.02-.001l.828.006h.019a2.55 2.55 0 0 0 1.836-.776l.001-.001.574-.591zm2.38 9.011-.588-.588a.718.718 0 0 0-1.015-.003l-4.084 3.77a.765.765 0 0 0-.255.519l-.001.031c0 .198.079.377.208.507l.879.889a.73.73 0 0 0 .51.212h.027a.757.757 0 0 0 .522-.251l3.796-4.066a.72.72 0 0 0 .003-1.02zm4.721-1.188-.007-.007-.771-.763a.481.481 0 0 0-.341-.141h-.003a.49.49 0 0 0-.289.094l.001-.001.001-.02.001-.007v-.001c.011-.146.026-.367-.117-.566a5.723 5.723 0 0 0-.558-.646l-.001-.001-.001-.001a6.107 6.107 0 0 0-1.951-1.259 3.079 3.079 0 0 0-1.192-.235h-.002c-.71 0-1.25.32-1.457.51a2.7 2.7 0 0 0-.319.365.36.36 0 0 0 .422.547l-.002.001c.051-.02.116-.04.182-.057l.011-.002a1.372 1.372 0 0 1 .421-.026h-.005c.297.024.648.172.803.294.263.212.39.497.411.925.004.086-.173.408-.45.776a.356.356 0 0 0 .033.472l.774.774a.359.359 0 0 0 .495.013c.219-.195.553-.49.669-.563a.83.83 0 0 1 .331-.13.43.43 0 0 1 .256.055l-.002-.001v.003a.032.032 0 0 1-.007.019l-.041.039-.006.006a.484.484 0 0 0 .001.687l.771.763a.481.481 0 0 0 .341.141h.003c.128 0 .251-.05.342-.14l1.261-1.247a.492.492 0 0 0-.007-.671zM17.924 23.917l2.88 5.567a.64.64 0 0 0 1.126.02l1.46-2.585-1.483-2.426a.64.64 0 0 1 1.091-.671l.002.003 1.499 2.453 3.061.312a.64.64 0 0 0 .633-.931l-3.048-5.891a4.482 4.482 0 0 1-4.012 2.417l-.828-.006H20.3a.636.636 0 0 0-.459.194l-.574.591a4.482 4.482 0 0 1-1.317.94l-.027.012zM7.243 20.238l-2.805 5.423a.64.64 0 0 0 .634.931l3.014-.308 1.502-2.458a.64.64 0 0 1 1.091.671l.002-.003-1.46 2.389 1.482 2.622a.64.64 0 0 0 1.125-.021l2.791-5.395a4.468 4.468 0 0 1-1.777-1.123l-.001-.001-.574-.591a.636.636 0 0 0-.459-.194h-.005l-.828.006a4.477 4.477 0 0 1-3.731-1.948z" />
        </symbol>
        <symbol id="local_filled" viewBox="0 0 32 32">
            <path
                d="m13.014 26.56-7.36.96-1.12-5.28 5.6-.96 2.88 5.28zm16-.48-6.72.8-1.12-5.28 4.96-.8 2.88 5.28zm-15.832-2.758-.328.038 2.72 4.8 5.28-.32-1.11-5.23c-.2.182-.429.383-.66.581l-.042.035a4.584 4.584 0 0 1-5.86.096zM18.005 22.007c2.459-2.093 6.369-6.122 6.369-10.589a8.408 8.408 0 0 0-2.437-5.924 8.271 8.271 0 0 0-5.883-2.454 8.27 8.27 0 0 0-5.883 2.453l-.001.001a8.38 8.38 0 0 0-2.437 5.919v.005c0 4.467 3.91 8.497 6.369 10.589a2.982 2.982 0 0 0 3.902 0zm1.889-10.647a3.84 3.84 0 1 1-7.68 0 3.84 3.84 0 0 1 7.68 0z" />
        </symbol>
        <symbol id="phone" viewBox="0 0 32 32">
            <path
                d="M28.8 22.298V26.148a2.56 2.56 0 0 1-2.801 2.549l.01.001c-4.154-.463-7.906-1.865-11.143-3.989l.096.059c-3.112-1.998-5.682-4.567-7.62-7.581l-.06-.099c-2.072-3.155-3.475-6.925-3.92-10.985l-.01-.113A2.56 2.56 0 0 1 5.899 3.2H9.764a2.56 2.56 0 0 1 2.533 2.188l.002.014c.163 1.229.462 2.436.896 3.597.104.268.164.577.164.901 0 .702-.282 1.338-.74 1.8l-1.625 1.625c1.855 3.222 4.458 5.825 7.581 7.627l.099.053 1.626-1.626a2.552 2.552 0 0 1 2.718-.57L23 18.803c1.161.434 2.368.735 3.597.896a2.563 2.563 0 0 1 2.202 2.535l-.001.067v-.003z" />
        </symbol>
        <symbol id="quotes_filled" viewBox="0 0 32 32">
            <path
                d="M18.391 4.977a.287.287 0 0 0-.287-.287h-8.046a3.16 3.16 0 0 0-3.161 3.161v16.092a3.16 3.16 0 0 0 3.161 3.161h11.494a3.162 3.162 0 0 0 3.161-3.161v-1.266l-.38.379-3.092.712-.103.01a2.274 2.274 0 0 1-.387.006 2.288 2.288 0 0 1-2.138-2.789l-.003.015.002-.01.691-2.984 5.41-5.425a.288.288 0 0 0-.286-.264h-5.172a.862.862 0 0 1-.862-.862V4.974zm-9.207 9.092c0-.457.37-.827.827-.828h3.586a.828.828 0 1 1 0 1.656h-3.586a.828.828 0 0 1-.828-.828zm0 4.138c0-.457.37-.827.827-.828h6.345a.828.828 0 0 1 0 1.656h-6.345a.828.828 0 0 1-.828-.828zm0 4.138c0-.457.37-.828.828-.828h6.345a.828.828 0 0 1 0 1.656h-6.345a.828.828 0 0 1-.828-.828z" />
            <path
                d="M24.713 20.339v-5.402l-3.905 3.915-.582 2.514a.632.632 0 0 0 .613.766.727.727 0 0 0 .132 0l2.529-.582 1.213-1.21zM20.211 5.654c0-.201.202-.329.351-.203.126.107.24.231.337.373l3.147 4.579a.154.154 0 0 1-.127.24h-3.447a.255.255 0 0 1-.185-.08.277.277 0 0 1-.077-.192V5.655z" />
            <path
                d="m20.808 18.852-.582 2.514a.632.632 0 0 0 .613.766.727.727 0 0 0 .132 0l2.529-.582 4.436-4.424-2.71-2.704-4.418 4.43zm9.073-4.561-1.809-1.808a.634.634 0 0 0-.896 0l-1.005 1.005 2.707 2.706 1.005-1.005a.634.634 0 0 0-.003-.899z" />
        </symbol>
        <symbol id="repair_filled" viewBox="0 0 32 32">
            <path
                d="M22.944 6.364a2.421 2.421 0 0 0 1.744 4.1l.059-.001h-.003a2.419 2.419 0 0 0 1.699-.743l.001-.001 3.224-3.354c.461.896.732 1.956.732 3.079a6.823 6.823 0 0 1-1.914 4.747l.002-.002a6.846 6.846 0 0 1-4.949 2.107c-1.026 0-2-.225-2.874-.629l.043.018c-1.706-1.27-2.464-2.006-3.501-3.355a6.753 6.753 0 0 1-.732-3.079c0-1.844.729-3.517 1.915-4.747l-.002.002a6.846 6.846 0 0 1 4.949-2.107c1.026 0 2 .225 2.874.629l-.043-.018-3.224 3.354zM10.893 19.03l3.518 3.336-5.224 5.541a2.427 2.427 0 0 1-4.175-1.626V26.229c0-.652.258-1.243.676-1.679l-.001.001 5.206-5.522zm4.44-5.988 11.434 10.842a2.84 2.84 0 0 1 .889 2.067c0 .745-.287 1.424-.756 1.931l.002-.002a2.85 2.85 0 0 1-2.1.921 2.851 2.851 0 0 1-1.967-.785l-11.432-10.84a2.84 2.84 0 0 1-.889-2.067c0-.464.111-.902.307-1.288l-.007.016-5.308-5.116-.984.984L1.6 5.769l1.806-1.995L7.63 6.596l-.976.976 5.269 5.079a2.827 2.827 0 0 1 1.444-.391c.762 0 1.455.298 1.967.785l-.001-.001z" />
        </symbol>
        <symbol id="roof_filled" viewBox="0 0 32 32">
            <path
                d="M11.129 11.926h-5.04l-.28.538h5.012l-2.19 3.826H3.823l-.28.539h4.78l-2.018 3.523H1.689l1.242-2.386v-1.138h.015v-.538h-.015v-3.826h.015v-.538h-.015v-.286h.015v-1.064h3.829L8.188 7.86h5.27l-2.328 4.066zm2.948-4.067-2.328 4.066h4.376l2.328-4.066h-4.376zm4.997 0-2.328 4.066h4.712l1.04-2.031 7.072 14.247h2.712L23.813 7.859h-4.739z" />
            <path
                d="M21.182 12.464h-4.744l-2.19 3.826h4.974l1.96-3.826zm-2.238 4.364h-5.005l-2.017 3.524h5.216l1.806-3.524zm-2.081 4.062h-5.25l-1.861 3.251h5.444l1.666-3.251zm-7.731 3.252 1.862-3.251H6.618l-1.862 3.251h4.376zm-4.996 0 1.861-3.251H1.409l-1.691 3.251h4.418zm7.305-11.678h4.376l-2.19 3.826H9.251l2.189-3.826zm-2.499 4.364-2.017 3.524h4.376l2.017-3.524H8.942zm10.968 1.15h2.374v2.374H19.91v-2.374zm0 2.968h2.374v2.374H19.91v-2.374zm5.341-2.968h-2.374v2.374h2.374v-2.374zm-2.373 2.968h2.374v2.374h-2.374v-2.374z" />
        </symbol>
        <symbol id="wall_filled" viewBox="0 0 32 32">
            <path
                d="M4 7.2a.8.8 0 0 1 .8-.8h9.666a.8.8 0 0 1 .8.8v3.806a.8.8 0 0 1-.8.8H4.8a.8.8 0 0 1-.8-.8V7.2zm0 7.298a.8.8 0 0 1 .8-.8h4.768a.8.8 0 0 1 .8.8v3.805a.8.8 0 0 1-.8.8H4.8a.8.8 0 0 1-.8-.8v-3.805zm7.837 0a.8.8 0 0 1 .8-.8h9.666a.8.8 0 0 1 .8.8v3.805a.8.8 0 0 1-.8.8h-9.666a.8.8 0 0 1-.8-.8v-3.805zM4 21.794a.8.8 0 0 1 .8-.8h9.666a.8.8 0 0 1 .8.8V25.6a.8.8 0 0 1-.8.8H4.8a.8.8 0 0 1-.8-.8v-3.806zm12.734 0a.8.8 0 0 1 .8-.8H27.2a.8.8 0 0 1 .8.8V25.6a.8.8 0 0 1-.8.8h-9.666a.8.8 0 0 1-.8-.8v-3.806z" />
        </symbol>
        <symbol id="wood_tree_filled" viewBox="0 0 32 32">
            <path
                d="M27.777 2.367h-2.821a.471.471 0 0 0-.419.257l-.001.003-2.4 4.8-2.4-4.8a.472.472 0 0 0-.421-.26H8.972a.47.47 0 0 0-.47.47V15.144l-4.448-2.83a.471.471 0 0 0-.584.064l-2.35 2.35a.47.47 0 0 0-.019.646l7.402 8.328v5.462c0 .259.21.47.47.47h5.17v-7.522a.47.47 0 0 1 .94 0v7.522h12.692a.47.47 0 0 0 .47-.47V2.838a.47.47 0 0 0-.47-.47h-.001zM15.085 19.29a.47.47 0 0 1-.94 0v-.94a.47.47 0 0 1 .94 0v.94z" />
        </symbol>
        <symbol id="close" viewBox="0 0 32 32">
            <path stroke-linecap="round" stroke-linejoin="round" stroke-width="2.667" d="M24 8 8 24M8 8l16 16" />
        </symbol>
        <symbol id="plumbing_filled" viewBox="0 0 32 32">
            <path
                d="m26.682 5.89-3.183-3.048c-1.171-1.122-3.078-1.122-4.25 0l-4.25 4.068 3.184 3.048 3.183-3.048L26.681 12a4.229 4.229 0 0 0 1.318-3.055v-.001a4.227 4.227 0 0 0-1.316-3.053l-.002-.002zM6.616 18.386c.376.379.898.614 1.474.614s1.098-.235 1.474-.614l3.435-3.429L10.05 12l-3.435 3.429c-.38.377-.616.9-.616 1.478s.235 1.101.615 1.478z" />
            <path
                d="m20.432 10.134 4.14 4.011c.136.131.243.287.317.458a1.364 1.364 0 0 1-.004 1.091l.003-.009a1.446 1.446 0 0 1-.791.764 1.5 1.5 0 0 1-1.596-.307l.001.001L9.013 29.171c-1.145 1.106-3.009 1.106-4.154 0-.53-.506-.859-1.217-.859-2.006s.329-1.5.858-2.005l.001-.001 10.377-10.022-4.667-4.507a2.112 2.112 0 0 1-.475-.675l-.005-.013a2.047 2.047 0 0 1 .005-1.642l-.005.013a2.09 2.09 0 0 1 .48-.688c.852-.837 2.246-.837 3.112.014l4.668 4.507 2.084-2.013z" />
        </symbol>
        <symbol id="Icon" viewBox="0 0 32 32">
            <path stroke-width=".853"
                d="M14.1 3.928a2.667 2.667 0 0 1 3.799 0L19.29 5.34a2.659 2.659 0 0 0 1.9.795h.021-.001l1.982-.015a2.666 2.666 0 0 1 2.686 2.687l-.015 1.982v.02c0 .744.304 1.416.795 1.9L28.07 14.1a2.667 2.667 0 0 1 0 3.799l-1.412 1.391a2.66 2.66 0 0 0-.795 1.9v.021-.001l.015 1.982a2.666 2.666 0 0 1-2.686 2.686l-1.982-.015h-.02c-.744 0-1.416.304-1.9.795l-1.391 1.412a2.667 2.667 0 0 1-3.799 0l-1.391-1.412a2.659 2.659 0 0 0-1.9-.795h-.021.001l-1.982.015a2.667 2.667 0 0 1-2.687-2.686l.015-1.982v-.02a2.66 2.66 0 0 0-.795-1.9l-1.412-1.391a2.667 2.667 0 0 1 0-3.799l1.412-1.391a2.659 2.659 0 0 0 .795-1.9v-.021.001L6.12 8.807A2.667 2.667 0 0 1 8.807 6.12l1.982.015h.02a2.66 2.66 0 0 0 1.9-.795L14.1 3.928z" />
            <path stroke-linecap="round" stroke-linejoin="round" stroke-width="2.667"
                d="M21.333 13.333 15.5 18.666l-3.5-2.51" />
        </symbol>
        <symbol id="instagram" viewBox="0 0 32 32">
            <path
                d="M22.667 2.667H9.334a6.667 6.667 0 0 0-6.667 6.667v13.333a6.667 6.667 0 0 0 6.667 6.667h13.333a6.667 6.667 0 0 0 6.667-6.667V9.334a6.667 6.667 0 0 0-6.667-6.667z" />
            <path stroke-linecap="round" stroke-linejoin="round" stroke-width="2.667"
                d="M21.333 15.16a5.334 5.334 0 0 1-10.548 1.596l-.004-.03a5.334 5.334 0 0 1 10.548-1.596l.004.03zm2-6.493h.013" />
        </symbol>
        <symbol id="mail" viewBox="0 0 32 32">
            <path
                d="M5.333 5.333h21.333c1.467 0 2.667 1.2 2.667 2.667v16c0 1.467-1.2 2.667-2.667 2.667H5.333A2.675 2.675 0 0 1 2.666 24V8c0-1.467 1.2-2.667 2.667-2.667z" />
            <path stroke-linecap="round" stroke-linejoin="round" stroke-width="2.667" d="M29.333 8 16 17.333 2.667 8" />
        </symbol>
        <symbol id="burger_menu" viewBox="0 0 32 32">
            <path stroke-linejoin="round" stroke-linecap="round" stroke-miterlimit="4" stroke-width="2.56"
                d="M4.818 16h23.040M4.818 8.32h23.040M4.818 23.68h23.040"></path>
        </symbol>
        <symbol id="twitter" viewBox="0 0 32 32">
            <path
                d="M30.667 4a14.37 14.37 0 0 1-4.084 2.013l-.103.027a5.973 5.973 0 0 0-10.479 4.004v-.004 1.333a14.197 14.197 0 0 1-11.97-5.996l-.03-.044s-5.333 12 6.667 17.333a15.387 15.387 0 0 1-9.364 2.666l.031.001c12 6.667 26.667 0 26.667-15.333a5.89 5.89 0 0 0-.107-1.107 10.277 10.277 0 0 0 2.758-4.822L30.668 4z" />
        </symbol>
        <symbol id="youtube" viewBox="0 0 32 32">
            <path
                d="M29.12 6.88a3.713 3.713 0 0 0-1.653-.987C25.174 5.333 16 5.333 16 5.333s-9.173 0-11.467.613l-.026.006a3.724 3.724 0 0 0-2.561 2.66l.037-.239a38.906 38.906 0 0 0-.651 7.101v.191-.013l-.001.256c0 2.426.223 4.8.614 6.864l.007.026a3.724 3.724 0 0 0 2.58 2.534c2.293.613 11.467.613 11.467.613s9.173 0 11.467-.613l.026-.006a3.724 3.724 0 0 0 2.561-2.66l-.037.239c.427-2.302.65-4.675.65-7.101v-.138a38.497 38.497 0 0 0-.613-7.107 3.69 3.69 0 0 0-.933-1.68zm-8.453 8.787L13 20.027v-8.72l7.667 4.36z" />
        </symbol>
        <symbol id="logo" viewBox="0 0 29 32">
            <path
                d="M12.107 1c.707-.525 1.597-.84 2.56-.84s1.853.315 2.572.848L17.227 1l9.184 6.753a4.32 4.32 0 0 1 1.761 3.481V25.01h-8.644V13.421l-4.861-3.575-4.863 3.575V25.01H1.161V11.234c0-1.373.653-2.667 1.76-3.481L12.106 1zM9.86 25.011h9.657V32H9.86z" />
        </symbol>
    </defs>
</svg>